<svg xmlns="http://www.w3.org/2000/svg" xmlns:xlink="http://www.w3.org/1999/xlink" version="1.1" width="568px" height="417px" style="shape-rendering:geometricPrecision; text-rendering:geometricPrecision; image-rendering:optimizeQuality; fill-rule:evenodd; clip-rule:evenodd">
	<g>
		<path xmlns="http://www.w3.org/2000/svg" style="opacity:0.8" fill="#000000" d="M 328.5,9.5 C 371.623,6.7166 413.623,12.2166 454.5,26C 492.088,38.8584 521.922,61.6917 544,94.5C 566.286,135.18 568.953,177.18 552,220.5C 535.92,258.927 511.753,291.427 479.5,318C 392.732,387.468 293.732,416.801 182.5,406C 144.294,401.269 109.294,388.269 77.5,367C 25.2459,327.243 7.41253,275.41 24,211.5C 34.1959,179.755 50.5292,151.755 73,127.5C 130.614,68.767 200.114,31.6003 281.5,16C 297.235,13.2434 312.902,11.0767 328.5,9.5 Z"/>
		<path style="opacity:0.928" fill="#77d5d4" d="M 318.5,37.5 C 321.862,37.0695 324.695,38.0695 327,40.5C 326.722,64.6218 324.722,88.6218 321,112.5C 317.314,137.613 313.314,162.613 309,187.5C 345.058,174.455 382.225,166.455 420.5,163.5C 426.323,129.884 433.49,96.5503 442,63.5C 443.738,56.6184 446.072,49.9518 449,43.5C 451.855,40.6397 455.022,40.1397 458.5,42C 460.594,43.255 461.594,45.0884 461.5,47.5C 450.65,85.2536 441.65,123.42 434.5,162C 456.818,161.177 479.151,161.511 501.5,163C 509.844,164.695 511.511,169.028 506.5,176C 491.839,176.111 477.172,175.945 462.5,175.5C 454.5,175.667 446.5,175.833 438.5,176C 436.423,176.192 434.423,176.692 432.5,177.5C 423.227,223.743 417.227,270.409 414.5,317.5C 414.553,323.69 414.886,329.857 415.5,336C 413.438,343.621 409.271,345.121 403,340.5C 401.956,338.285 401.29,335.952 401,333.5C 400.188,309.389 401.521,285.389 405,261.5C 408.842,233.441 413.008,205.441 417.5,177.5C 379.062,181.443 341.728,190.11 305.5,203.5C 294.875,250.669 282.375,297.335 268,343.5C 264.986,350.103 260.652,351.103 255,346.5C 244.799,308.53 239.966,269.863 240.5,230.5C 224.865,236.981 209.199,243.481 193.5,250C 185.637,253.066 177.637,255.732 169.5,258C 154.774,280.738 137.774,301.738 118.5,321C 108.203,329.984 96.5361,336.651 83.5,341C 75.8243,342.954 68.1577,342.954 60.5,341C 56.5,337 56.5,333 60.5,329C 73.531,330.076 85.531,327.076 96.5,320C 116.652,304.183 133.652,285.516 147.5,264C 137.188,264.47 126.855,264.47 116.5,264C 112.781,263.612 109.114,262.945 105.5,262C 101.5,258 101.5,254 105.5,250C 107.333,249.833 109.167,249.667 111,249.5C 127.682,251.719 144.015,250.386 160,245.5C 171.84,225.825 183.173,205.825 194,185.5C 216.082,140.907 237.582,96.0741 258.5,51C 264.891,48.1956 268.891,50.1956 270.5,57C 259.635,106.952 254.301,157.452 254.5,208.5C 267.229,202.87 280.062,197.536 293,192.5C 303.32,142.26 310.653,91.5934 315,40.5C 316.145,39.3636 317.312,38.3636 318.5,37.5 Z M 245.5,110.5 C 246.152,111.449 246.486,112.615 246.5,114C 242.403,147.712 240.07,181.546 239.5,215.5C 220.199,223.481 200.865,231.481 181.5,239.5C 181.167,239.167 180.833,238.833 180.5,238.5C 204.752,197.219 226.419,154.553 245.5,110.5 Z M 287.5,209.5 C 288.376,209.369 289.043,209.702 289.5,210.5C 281.272,245.411 272.106,280.078 262,314.5C 256.597,284.426 253.763,254.093 253.5,223.5C 265.119,219.352 276.452,214.685 287.5,209.5 Z"/>
	</g>
</svg>